<svg width="51" height="50" viewBox="0 0 51 50" fill="none" xmlns="http://www.w3.org/2000/svg">
<path d="M39.2505 40.0319V36.6985C39.2505 34.9304 38.5471 33.2347 37.2951 31.9845C36.0431 30.7342 34.3451 30.0319 32.5745 30.0319H19.2227C17.4521 30.0319 15.7541 30.7342 14.5021 31.9845C13.2501 33.2347 12.5468 34.9304 12.5468 36.6985V40.0319M32.5745 16.6985C32.5745 20.3804 29.5856 23.3652 25.8986 23.3652C22.2116 23.3652 19.2227 20.3804 19.2227 16.6985C19.2227 13.0166 22.2116 10.0319 25.8986 10.0319C29.5856 10.0319 32.5745 13.0166 32.5745 16.6985Z" stroke="#145999" stroke-width="4" stroke-linecap="round" stroke-linejoin="round"/>
<path d="M48.9264 25C48.9264 37.6999 38.616 48 25.8917 48C13.1673 48 2.85693 37.6999 2.85693 25C2.85693 12.3001 13.1673 2 25.8917 2C38.616 2 48.9264 12.3001 48.9264 25Z" stroke="#145999" stroke-width="4"/>
</svg>
